<svg width="16" height="16" viewBox="0 0 16 16" fill="none" xmlns="http://www.w3.org/2000/svg">
<path d="M6 3.99478C6 2.89359 6.89543 3.0009 8 3.0009C9.10457 3.0009 10 2.89359 10 3.99478H12C12.5523 3.99478 13 4.44113 13 4.99172C13 5.54232 12.5523 5.98866 12 5.98866H4C3.44772 5.98866 3 5.54232 3 4.99172C3 4.44113 3.44772 3.99478 4 3.99478H6Z" fill="#C92A2A"/>
<path d="M4 10.5085V6.00092H6V10.5085C6 10.7838 6.22386 11.007 6.5 11.007H7V6.00092H9L9 11.007H9.5C9.77614 11.007 10 10.7838 10 10.5085V6.00092H12V10.5085C12 11.885 10.8807 13.0009 9.5 13.0009H6.5C5.11929 13.0009 4 11.885 4 10.5085Z" fill="#C92A2A"/>
</svg>
