<svg width="20" height="20" viewBox="0 0 20 20" fill="none" xmlns="http://www.w3.org/2000/svg">
<path fill-rule="evenodd" clip-rule="evenodd" d="M1.25 2.5C0.559644 2.5 0 3.05964 0 3.75C0 4.44036 0.559644 5 1.25 5H12.5C13.1904 5 13.75 4.44036 13.75 3.75C13.75 3.05964 13.1904 2.5 12.5 2.5H1.25ZM1.25 7.5C0.559644 7.5 0 8.05964 0 8.75C0 9.44036 0.559644 10 1.25 10H6.25C6.94036 10 7.5 9.44036 7.5 8.75C7.5 8.05964 6.94036 7.5 6.25 7.5H1.25ZM0 13.75C0 13.0596 0.559644 12.5 1.25 12.5H3.75C4.44036 12.5 5 13.0596 5 13.75C5 14.4404 4.44036 15 3.75 15H1.25C0.559644 15 0 14.4404 0 13.75ZM19.8295 7.50015L17.4999 5.17037C17.2728 4.94321 16.9036 4.94321 16.6764 5.17037L15.1704 6.67657C14.9432 6.90372 14.9432 7.27299 15.1704 7.50015L17.4999 9.82993C17.6141 9.94409 17.7632 10 17.9123 10C18.0614 10 18.2104 9.94292 18.3246 9.82993L19.8307 8.32372C20.0566 8.09657 20.0566 7.7273 19.8295 7.50015ZM13.7654 8.91925C13.5398 8.69358 13.173 8.69358 12.9473 8.91925L7.66894 14.1983C7.56017 14.3059 7.5 14.4529 7.5 14.6068V16.9214C7.5 17.2408 7.75919 17.5 8.07855 17.5H10.3928C10.5467 17.5 10.6936 17.4387 10.8024 17.331L16.0808 12.052C16.3064 11.8263 16.3064 11.4595 16.0808 11.2338L13.7654 8.91925Z" fill="#343A40"/>
</svg>
