<svg width="54" height="54" viewBox="0 0 54 54" fill="none" xmlns="http://www.w3.org/2000/svg">
    <g filter="url(#tksngtx8ra)">
        <path d="M51 3.799V48.2c0 .994-.963 1.799-2.154 1.799H5.154C3.963 50 3 49.195 3 48.201V3.8C3 2.805 3.963 2 5.153 2h43.694C50.036 2 51 2.805 51 3.799z" fill="#fff"/>
    </g>
    <path opacity=".7" d="m32.779 24.23-2.057-1.003a4.91 4.91 0 0 1-3.712 1.703c-2.71 0-4.917-2.204-4.917-4.908 0-.351.05-.652.1-1.002l-2.057-1.002-4.414-2.154c-.502 1.403-.803 2.955-.703 4.608.251 6.262 5.368 11.32 11.59 11.521a12.007 12.007 0 0 0 10.585-5.61l-4.415-2.154zM26.959 8c-4.314 0-8.127 2.254-10.234 5.71l4.415 2.154 2.057 1.002c.802-.902 1.906-1.553 3.16-1.703l.301-2.254.602-4.859c-.1-.05-.2-.05-.3-.05zm2.71.3-.602 4.86-.302 2.253a4.925 4.925 0 0 1 3.11 4.558c0 .351-.05.702-.1 1.002l2.058 1.002 4.414 2.154A11.53 11.53 0 0 0 39 19.971v-.05c-.05-5.61-4.014-10.368-9.331-11.62z" fill="#E9ECEF"/>
    <path d="M26.96 8c-4.315 0-8.128 2.254-10.235 5.71l4.415 2.154 2.057 1.002c.803-.902 1.906-1.553 3.16-1.703l.302-2.254.602-4.859C27.16 8 27.06 8 26.959 8zM29.669 8.3l-.602 4.86-.301 2.254a4.925 4.925 0 0 1 3.11 4.558c0 .35-.05.701-.1 1.002l2.057 1.001 4.415 2.154A11.53 11.53 0 0 0 39 19.972v-.05c-.05-5.61-4.013-10.369-9.331-11.621z" fill="#E9ECEF"/>
    <path opacity=".1" d="m23.197 16.866-2.057-1.002c1.254-1.703 3.21-2.855 5.468-2.955l-.3 2.254a4.848 4.848 0 0 0-3.111 1.703zM30.722 23.227l2.057 1.002a7.131 7.131 0 0 1-5.82 2.956c-3.963 0-7.174-3.206-7.174-7.163 0-.702.1-1.353.301-2.004l2.057 1.002c-.05.3-.1.651-.1 1.002 0 2.705 2.207 4.909 4.916 4.909 1.506 0 2.86-.652 3.763-1.704zM34.134 20.022c0 .701-.1 1.402-.301 2.003l-2.057-1.002c.05-.35.1-.65.1-1.001a4.925 4.925 0 0 0-3.11-4.558l.3-2.255c2.91.852 5.068 3.607 5.068 6.813z" fill="#343A40"/>
    <path d="M44 38H10a1 1 0 1 0 0 2h34a1 1 0 1 0 0-2zM37 42H10a1 1 0 1 0 0 2h27a1 1 0 1 0 0-2z" fill="#DEE2E6"/>
    <defs>
        <filter id="tksngtx8ra" x="0" y="0" width="54" height="54" filterUnits="userSpaceOnUse" color-interpolation-filters="sRGB">
            <feFlood flood-opacity="0" result="BackgroundImageFix"/>
            <feColorMatrix in="SourceAlpha" values="0 0 0 0 0 0 0 0 0 0 0 0 0 0 0 0 0 0 127 0" result="hardAlpha"/>
            <feOffset dy="1"/>
            <feGaussianBlur stdDeviation="1"/>
            <feColorMatrix values="0 0 0 0 0 0 0 0 0 0 0 0 0 0 0 0 0 0 0.06 0"/>
            <feBlend in2="BackgroundImageFix" result="effect1_dropShadow_8205_26666"/>
            <feColorMatrix in="SourceAlpha" values="0 0 0 0 0 0 0 0 0 0 0 0 0 0 0 0 0 0 127 0" result="hardAlpha"/>
            <feOffset dy="1"/>
            <feGaussianBlur stdDeviation="1.5"/>
            <feColorMatrix values="0 0 0 0 0 0 0 0 0 0 0 0 0 0 0 0 0 0 0.1 0"/>
            <feBlend in2="effect1_dropShadow_8205_26666" result="effect2_dropShadow_8205_26666"/>
            <feBlend in="SourceGraphic" in2="effect2_dropShadow_8205_26666" result="shape"/>
        </filter>
    </defs>
</svg>
