<svg width="24" height="24" viewBox="0 0 24 24" fill="none" xmlns="http://www.w3.org/2000/svg">
    <path d="M20 20.982c0 .27-.105.529-.293.72A.991.991 0 0 1 19 22H5a.991.991 0 0 1-.707-.298 1.027 1.027 0 0 1-.293-.72v-9.161H1l10.327-9.556a.99.99 0 0 1 1.346 0L23 11.821h-3v9.161zm-8-5.09c.663 0 1.299-.268 1.768-.745a2.568 2.568 0 0 0 .732-1.8c0-.674-.263-1.321-.732-1.798A2.478 2.478 0 0 0 12 10.803c-.663 0-1.299.268-1.768.745a2.568 2.568 0 0 0-.732 1.8c0 .675.263 1.322.732 1.8a2.478 2.478 0 0 0 1.768.745z" fill="#fff"/>
</svg>
