<svg width="16" height="16" viewBox="0 0 16 16" fill="none" xmlns="http://www.w3.org/2000/svg">
    <path d="M9.268 1.162v1.272c1.7.01 3.56-.017 5.26.01a.392.392 0 0 1 .457.43c.027 3.133-.007 6.445.016 9.579-.01.2.004.559-.027.758-.04.255-.153.304-.409.338-.143.02-.381.017-.522.024-1.396-.007-2.791-.006-4.187-.005h-.588v1.273L1 13.567V2.437l8.268-1.275z" fill="#283C82"/>
    <path d="M9.268 2.911h5.25v10.18h-5.25v-1.273h4.135v-.636H9.268v-.795h4.135V9.75H9.268v-.795h4.135V8.32H9.268v-.795h4.135v-.637H9.268v-.795h4.135v-.636H9.268V4.66h4.135v-.637H9.268V2.911zm-4.982 2.81c.3-.017.605-.03.907-.045.211 1.073.428 2.145.657 3.214.18-1.104.378-2.204.57-3.306.319-.012.636-.028.953-.05-.36 1.54-.674 3.095-1.067 4.627-.265.138-.663-.007-.978.016-.211-1.053-.458-2.1-.647-3.157-.186 1.03-.428 2.047-.641 3.068a58.322 58.322 0 0 1-.92-.056c-.264-1.4-.574-2.79-.82-4.192.272-.013.545-.024.817-.034.164 1.013.35 2.022.493 3.036.224-1.04.454-2.08.676-3.12z" fill="#fff"/>
</svg>
