<svg width="24" height="24" viewBox="0 0 24 24" fill="none" xmlns="http://www.w3.org/2000/svg">
    <path d="m21.335 12.078-4.085-2.041V5.25a.75.75 0 0 0-.415-.67l-4.5-2.25a.75.75 0 0 0-.67 0l-4.5 2.25a.75.75 0 0 0-.415.67v4.786l-4.085 2.042a.75.75 0 0 0-.415.672V18a.75.75 0 0 0 .415.67l4.5 2.25a.75.75 0 0 0 .67 0L12 18.84l4.165 2.083a.75.75 0 0 0 .67 0l4.5-2.25A.75.75 0 0 0 21.75 18v-5.25a.75.75 0 0 0-.415-.672zm-5.585-2.041-3 1.5V7.964l3-1.5v3.573zM12 3.839l2.823 1.41L12 6.662 9.177 5.25 12 3.839zM8.25 6.464l3 1.5v3.573l-3-1.5V6.464zm-1.5 12.572-3-1.5v-3.573l3 1.5v3.573zm.75-4.875L4.677 12.75 7.5 11.338l2.823 1.412L7.5 14.16zm.75 1.302 3-1.5v3.573l-3 1.5v-3.573zm7.5 3.573-3-1.5v-3.573l3 1.5v3.573zm.75-4.875-2.823-1.411 2.823-1.412 2.823 1.412L16.5 14.16zm3.75 3.375-3 1.5v-3.573l3-1.5v3.573z" fill="#fff"/>
</svg>
