<svg width="16" height="16" viewBox="0 0 16 16" fill="none" xmlns="http://www.w3.org/2000/svg">
<path d="M11.3335 14.6663V13.333H13.3335V11.333H14.6668V13.6663C14.6668 13.9263 14.5602 14.1597 14.3602 14.3597C14.1602 14.5597 13.9268 14.6663 13.6668 14.6663H11.3335Z" fill="#495057"/>
<path d="M4.66683 14.6663H2.3335C2.0735 14.6663 1.84016 14.5597 1.64016 14.3597C1.44016 14.1597 1.3335 13.9263 1.3335 13.6663V11.333H2.66683V13.333H4.66683V14.6663Z" fill="#495057"/>
<path d="M11.3335 1.33301H13.6668C13.9268 1.33301 14.1602 1.43967 14.3602 1.63967C14.5602 1.83967 14.6668 2.07301 14.6668 2.33301V4.66634H13.3335V2.66634H11.3335V1.33301Z" fill="#495057"/>
<path d="M4.66683 1.33301V2.66634H2.66683V4.66634H1.3335V2.33301C1.3335 2.07301 1.44016 1.83967 1.64016 1.63967C1.84016 1.43967 2.0735 1.33301 2.3335 1.33301H4.66683Z" fill="#495057"/>
<path d="M6.10037 8.34603C6.10037 8.81936 5.95371 9.2127 5.6537 9.51936C5.3537 9.82603 4.96704 9.97936 4.48704 9.97936C4.0137 9.97936 3.62704 9.82603 3.32704 9.51936C3.0337 9.2127 2.88037 8.81936 2.88037 8.34603V7.6527C2.88037 7.17936 3.02704 6.7927 3.32704 6.47936C3.62037 6.1727 4.00704 6.0127 4.48037 6.0127C4.96037 6.0127 5.34704 6.16603 5.64704 6.47936C5.94704 6.78603 6.10037 7.17936 6.10037 7.6527V8.34603ZM5.3337 7.64603C5.3337 7.34603 5.26037 7.09936 5.10704 6.90603C4.9537 6.71936 4.74704 6.61936 4.48037 6.61936C4.22037 6.61936 4.0137 6.7127 3.86704 6.90603C3.72704 7.09936 3.6537 7.34603 3.6537 7.64603V8.34603C3.6537 8.6527 3.72704 8.89936 3.8737 9.0927C4.02037 9.28603 4.22704 9.37936 4.48704 9.37936C4.7537 9.37936 4.96037 9.28603 5.10704 9.0927C5.2537 8.89936 5.3337 8.6527 5.3337 8.34603V7.64603Z" fill="#495057"/>
<path d="M9.60061 8.65286L9.60727 8.6662C9.61394 9.07953 9.48727 9.39953 9.23394 9.63286C8.97394 9.8662 8.62061 9.97953 8.16727 9.97953C7.70727 9.97953 7.33394 9.83286 7.04727 9.53286C6.76061 9.23286 6.62061 8.85286 6.62061 8.37953V7.61953C6.62061 7.15286 6.76061 6.7662 7.03394 6.4662C7.31394 6.1662 7.67394 6.01953 8.12727 6.01953C8.59394 6.01953 8.96061 6.13286 9.22727 6.3662C9.49394 6.59953 9.62061 6.91286 9.61394 7.33286L9.60727 7.3462H8.85394C8.85394 7.09953 8.79394 6.91286 8.67394 6.79286C8.55394 6.67286 8.37394 6.61286 8.12061 6.61286C7.88727 6.61286 7.70727 6.7062 7.58061 6.89286C7.45394 7.07953 7.38727 7.31953 7.38727 7.61286V8.3862C7.38727 8.67953 7.45394 8.9262 7.59394 9.11286C7.73394 9.29953 7.92061 9.39286 8.16727 9.39286C8.40061 9.39286 8.57394 9.33286 8.68727 9.21286C8.80061 9.09286 8.86061 8.9062 8.86061 8.65286H9.60061Z" fill="#495057"/>
<path d="M10.9335 8.3856V9.9256H10.1602V6.07227H11.4935C11.9335 6.07227 12.2735 6.17227 12.5268 6.37227C12.7735 6.57227 12.9002 6.85227 12.9002 7.21227C12.9002 7.41227 12.8468 7.57893 12.7402 7.7256C12.6335 7.87227 12.4802 7.9856 12.2802 8.07226C12.5068 8.13893 12.6735 8.25226 12.7735 8.4056C12.8735 8.5656 12.9202 8.75893 12.9202 8.9856V9.2656C12.9202 9.37226 12.9335 9.4856 12.9668 9.6056C13.0002 9.7256 13.0468 9.81226 13.1135 9.8656V9.91893H12.3135C12.2402 9.8656 12.2002 9.7656 12.1802 9.63893C12.1602 9.5056 12.1468 9.37893 12.1468 9.25893V8.9856C12.1468 8.79226 12.0935 8.6456 11.9868 8.53893C11.8802 8.43227 11.7335 8.37893 11.5402 8.37893H10.9335V8.3856ZM10.9335 7.79226H11.4802C11.7002 7.79226 11.8602 7.7456 11.9668 7.65226C12.0735 7.55893 12.1268 7.4256 12.1268 7.2456C12.1268 7.07227 12.0735 6.9256 11.9668 6.8256C11.8602 6.71893 11.7002 6.6656 11.4935 6.6656H10.9335V7.79226Z" fill="#495057"/>
</svg>
