<svg width="16" height="16" viewBox="0 0 16 16" fill="none" xmlns="http://www.w3.org/2000/svg">
    <path d="M14.031 5.264v8.76c0 .815-.661 1.476-1.477 1.476H3.447a1.477 1.477 0 0 1-1.476-1.477V1.977C1.97 1.16 2.63.5 3.447.5h6.1l4.484 4.764z" fill="#E5252A"/>
    <path d="M14.031 5.264h-3.5a.985.985 0 0 1-.984-.984V.5l4.484 4.764z" fill="#ED676A"/>
    <path d="M5.117 11.034v.998h-.709v-2.94h1.173c.225 0 .424.041.597.124a.937.937 0 0 1 .544.874.85.85 0 0 1-.308.687c-.205.171-.487.257-.845.257h-.452zm0-.547h.464c.138 0 .242-.034.315-.103.072-.068.107-.165.107-.29a.476.476 0 0 0-.111-.33.396.396 0 0 0-.303-.125h-.472v.848zM7.1 12.032v-2.94h.947c.26 0 .493.058.7.177.207.117.37.283.486.499.116.214.175.454.176.72v.136c0 .27-.057.51-.17.724a1.25 1.25 0 0 1-.481.501c-.207.12-.437.181-.691.183H7.1zm.708-2.393v1.848h.246c.204 0 .36-.072.469-.217.11-.145.164-.36.164-.646v-.127c0-.284-.055-.498-.164-.642-.11-.144-.268-.216-.476-.216h-.239zM11.625 10.86h-1.143v1.172h-.709v-2.94h1.967v.547h-1.258v.677h1.143v.545z" fill="#fff"/>
</svg>
