<svg width="16" height="16" viewBox="0 0 16 16" fill="none" xmlns="http://www.w3.org/2000/svg">
<path d="M13.3343 4.66602H10.0001C9.82323 4.66602 9.65362 4.6058 9.52856 4.4986C9.40351 4.39141 9.33325 4.24603 9.33325 4.09444V1.23656C9.33391 1.12371 9.37352 1.01356 9.4471 0.919981C9.52067 0.826402 9.62491 0.753585 9.74669 0.710705C9.86813 0.666934 10.002 0.654975 10.1313 0.676337C10.2607 0.6977 10.3798 0.751426 10.4735 0.830736L13.8077 3.68862C13.9003 3.769 13.963 3.87106 13.9879 3.98194C14.0128 4.09282 13.9988 4.20755 13.9478 4.31164C13.8978 4.41602 13.8128 4.50537 13.7036 4.56844C13.5945 4.6315 13.4659 4.66545 13.3343 4.66602ZM10.6669 3.52286H11.7272L10.6669 2.61406V3.52286Z" fill="#005D98"/>
<path d="M13.3333 15.3327H2.66667C2.48986 15.3327 2.32029 15.2683 2.19526 15.1537C2.07024 15.0391 2 14.8836 2 14.7216V1.27714C2 1.11506 2.07024 0.959621 2.19526 0.845016C2.32029 0.730411 2.48986 0.666026 2.66667 0.666026H9.99999C10.0877 0.665561 10.1747 0.680976 10.2559 0.711388C10.3372 0.7418 10.411 0.786609 10.4733 0.843248L13.8067 3.8988C13.8684 3.9559 13.9173 4.02362 13.9505 4.09808C13.9837 4.17254 14.0005 4.25226 14 4.33269V14.7216C14 14.8836 13.9298 15.0391 13.8047 15.1537C13.6797 15.2683 13.5101 15.3327 13.3333 15.3327ZM3.33333 14.1105H12.6667V4.58324L9.72666 1.88825H3.33333V14.1105Z" fill="#005D98"/>
<path d="M7.72657 8.27256C7.63884 8.27307 7.55186 8.25625 7.47064 8.22307C7.38941 8.1899 7.31553 8.14101 7.25324 8.07923L6.30657 7.13923C6.24409 7.07725 6.19449 7.00352 6.16065 6.92228C6.1268 6.84104 6.10937 6.7539 6.10938 6.66589C6.10937 6.57789 6.1268 6.49075 6.16065 6.40951C6.19449 6.32827 6.24409 6.25454 6.30657 6.19256L7.25324 5.25256C7.31301 5.18277 7.38655 5.12609 7.46926 5.08608C7.55197 5.04606 7.64206 5.02357 7.73387 5.02003C7.82568 5.01648 7.91724 5.03195 8.00279 5.06547C8.08834 5.09899 8.16604 5.14982 8.23101 5.21479C8.29598 5.27976 8.34682 5.35746 8.38033 5.44301C8.41385 5.52856 8.42932 5.62012 8.42577 5.71193C8.42223 5.80374 8.39974 5.89383 8.35972 5.97654C8.31971 6.05925 8.26303 6.1328 8.19324 6.19256L7.72657 6.66589L8.19324 7.13923C8.31741 7.26414 8.3871 7.4331 8.3871 7.60923C8.3871 7.78535 8.31741 7.95432 8.19324 8.07923C8.06907 8.20239 7.90147 8.27182 7.72657 8.27256Z" fill="#005D98"/>
<path d="M8.00008 12.6667C7.11603 12.6667 6.26818 12.3155 5.64306 11.6904C5.01794 11.0652 4.66675 10.2174 4.66675 9.33333C4.66675 9.15652 4.73699 8.98695 4.86201 8.86193C4.98703 8.7369 5.1566 8.66667 5.33341 8.66667C5.51023 8.66667 5.67979 8.7369 5.80482 8.86193C5.92984 8.98695 6.00008 9.15652 6.00008 9.33333C6.00008 9.7289 6.11738 10.1156 6.33714 10.4445C6.55691 10.7734 6.86926 11.0297 7.23471 11.1811C7.60017 11.3325 8.0023 11.3721 8.39026 11.2949C8.77822 11.2177 9.13459 11.0273 9.41429 10.7475C9.694 10.4678 9.88448 10.1115 9.96165 9.72351C10.0388 9.33555 9.99922 8.93342 9.84784 8.56797C9.69647 8.20251 9.44012 7.89016 9.11122 7.67039C8.78232 7.45063 8.39564 7.33333 8.00008 7.33333C7.82327 7.33333 7.6537 7.2631 7.52868 7.13807C7.40365 7.01305 7.33341 6.84348 7.33341 6.66667C7.33341 6.48986 7.40365 6.32029 7.52868 6.19526C7.6537 6.07024 7.82327 6 8.00008 6C8.88414 6 9.73198 6.35119 10.3571 6.97631C10.9822 7.60143 11.3334 8.44928 11.3334 9.33333C11.3334 10.2174 10.9822 11.0652 10.3571 11.6904C9.73198 12.3155 8.88414 12.6667 8.00008 12.6667Z" fill="#005D98"/>
</svg>
