<svg width="16" height="16" viewBox="0 0 16 16" fill="none" xmlns="http://www.w3.org/2000/svg">
<path d="M13.3345 4.66699H10.0003C9.82348 4.66699 9.65387 4.60677 9.52881 4.49958C9.40375 4.39239 9.3335 4.24701 9.3335 4.09542V1.23753C9.33415 1.12469 9.37377 1.01454 9.44734 0.920958C9.52091 0.827379 9.62516 0.754561 9.74694 0.711682C9.86838 0.667911 10.0022 0.655952 10.1316 0.677314C10.2609 0.698676 10.38 0.752402 10.4738 0.831713L13.808 3.6896C13.9005 3.76997 13.9632 3.87204 13.9881 3.98292C14.013 4.0938 13.9991 4.20852 13.948 4.31261C13.898 4.417 13.813 4.50635 13.7039 4.56941C13.5947 4.63248 13.4662 4.66643 13.3345 4.66699ZM10.6672 3.52384H11.7275L10.6672 2.61503V3.52384Z" fill="#495057"/>
<path d="M13.3333 15.3337H2.66667C2.48986 15.3337 2.32029 15.2693 2.19526 15.1547C2.07024 15.0401 2 14.8846 2 14.7225V1.27811C2 1.11604 2.07024 0.960598 2.19526 0.845993C2.32029 0.731387 2.48986 0.667002 2.66667 0.667002H9.99999C10.0877 0.666537 10.1747 0.681953 10.2559 0.712364C10.3372 0.742776 10.411 0.787586 10.4733 0.844224L13.8067 3.89978C13.8684 3.95688 13.9173 4.0246 13.9505 4.09906C13.9837 4.17351 14.0005 4.25324 14 4.33367V14.7225C14 14.8846 13.9298 15.0401 13.8047 15.1547C13.6797 15.2693 13.5101 15.3337 13.3333 15.3337ZM3.33333 14.1114H12.6667V4.58422L9.72666 1.88922H3.33333V14.1114Z" fill="#495057"/>
<path d="M7.72657 8.27451C7.63884 8.27502 7.55186 8.2582 7.47064 8.22503C7.38941 8.19185 7.31553 8.14297 7.25324 8.08118L6.30657 7.14118C6.24409 7.0792 6.19449 7.00547 6.16065 6.92423C6.1268 6.84299 6.10937 6.75585 6.10938 6.66785C6.10937 6.57984 6.1268 6.4927 6.16065 6.41146C6.19449 6.33022 6.24409 6.25649 6.30657 6.19451L7.25324 5.25451C7.31301 5.18473 7.38655 5.12805 7.46926 5.08803C7.55197 5.04801 7.64206 5.02553 7.73387 5.02198C7.82568 5.01843 7.91724 5.03391 8.00279 5.06742C8.08834 5.10094 8.16604 5.15178 8.23101 5.21675C8.29598 5.28172 8.34682 5.35941 8.38033 5.44496C8.41385 5.53051 8.42932 5.62207 8.42577 5.71388C8.42223 5.8057 8.39974 5.89578 8.35972 5.97849C8.31971 6.0612 8.26303 6.13475 8.19324 6.19451L7.72657 6.66785L8.19324 7.14118C8.31741 7.26609 8.3871 7.43506 8.3871 7.61118C8.3871 7.7873 8.31741 7.95627 8.19324 8.08118C8.06907 8.20434 7.90147 8.27378 7.72657 8.27451Z" fill="#495057"/>
<path d="M7.99984 12.6667C7.11578 12.6667 6.26794 12.3155 5.64281 11.6904C5.01769 11.0652 4.6665 10.2174 4.6665 9.33333C4.6665 9.15652 4.73674 8.98695 4.86177 8.86193C4.98679 8.7369 5.15636 8.66667 5.33317 8.66667C5.50998 8.66667 5.67955 8.7369 5.80457 8.86193C5.9296 8.98695 5.99984 9.15652 5.99984 9.33333C5.99984 9.7289 6.11714 10.1156 6.3369 10.4445C6.55666 10.7734 6.86902 11.0297 7.23447 11.1811C7.59992 11.3325 8.00206 11.3721 8.39002 11.2949C8.77798 11.2177 9.13435 11.0273 9.41405 10.7475C9.69376 10.4678 9.88424 10.1115 9.96141 9.72351C10.0386 9.33555 9.99897 8.93342 9.8476 8.56797C9.69622 8.20251 9.43988 7.89016 9.11098 7.67039C8.78208 7.45063 8.3954 7.33333 7.99984 7.33333C7.82303 7.33333 7.65346 7.2631 7.52843 7.13807C7.40341 7.01305 7.33317 6.84348 7.33317 6.66667C7.33317 6.48986 7.40341 6.32029 7.52843 6.19526C7.65346 6.07024 7.82303 6 7.99984 6C8.88389 6 9.73174 6.35119 10.3569 6.97631C10.982 7.60143 11.3332 8.44928 11.3332 9.33333C11.3332 10.2174 10.982 11.0652 10.3569 11.6904C9.73174 12.3155 8.88389 12.6667 7.99984 12.6667Z" fill="#495057"/>
</svg>
