<svg width="24" height="24" viewBox="0 0 24 24" fill="none" xmlns="http://www.w3.org/2000/svg">
    <path fill-rule="evenodd" clip-rule="evenodd" d="M3.879 4.879A3 3 0 0 1 6 4h2a1 1 0 0 1 0 2H6a1 1 0 0 0-1 1v12a1 1 0 0 0 1 1h5.697a1 1 0 1 1 0 2H6a3 3 0 0 1-3-3V7a3 3 0 0 1 .879-2.121zM13 5a1 1 0 0 1 1-1h2a3 3 0 0 1 3 3v4a1 1 0 1 1-2 0V7a1 1 0 0 0-1-1h-2a1 1 0 0 1-1-1zm5 8a1 1 0 0 1 1 1v3h3a1 1 0 1 1 0 2h-4a1 1 0 0 1-1-1v-4a1 1 0 0 1 1-1z" fill="#005d98"/>
    <path fill-rule="evenodd" clip-rule="evenodd" d="M10 4a1 1 0 0 0 0 2h2a1 1 0 1 0 0-2h-2zM7.879 2.879A3 3 0 0 1 10 2h2a3 3 0 0 1 0 6h-2a3 3 0 0 1-2.121-5.121zM7 11a1 1 0 0 1 1-1h4a1 1 0 1 1 0 2H8a1 1 0 0 1-1-1zm7.464 3.464a5 5 0 1 1 7.071 7.07 5 5 0 0 1-7.07-7.07zM18 15a3 3 0 1 0 0 6 3 3 0 0 0 0-6zM7 15a1 1 0 0 1 1-1h3a1 1 0 1 1 0 2H8a1 1 0 0 1-1-1z" fill="#005d98"/>
</svg>
