<svg width="16" height="16" viewBox="0 0 16 16" fill="none" xmlns="http://www.w3.org/2000/svg">
    <path fill-rule="evenodd" clip-rule="evenodd" d="M2 2.75C2 1.784 2.784 1 3.75 1H6c1 0 1 .586 1 1 0 .414 0 1-1 1H4.25a.25.25 0 0 0-.25.25v9.5c0 .138.112.25.25.25H6c.414 0 1 0 1 1s-.586 1-1 1H3.75A1.75 1.75 0 0 1 2 13.25V2.75zM12 7H6.81C6.398 7 6 7.586 6 8c0 .414.397 1 .81 1H12l-1.53 1.72a.75.75 0 1 0 1.06 1.06l3.25-3.25a.75.75 0 0 0 0-1.06l-3.25-3.25a.75.75 0 1 0-1.06 1.06L12 7z" fill="#495057"/>
</svg>
