<svg width="16" height="16" viewBox="0 0 16 16" fill="none" xmlns="http://www.w3.org/2000/svg">
<g clip-path="url(#clip0_8224_19484)">
<path fill-rule="evenodd" clip-rule="evenodd" d="M9.1004 0.679358C8.99807 0.475179 8.84094 0.303499 8.64661 0.183521C8.45227 0.063543 8.22839 0 8 0C7.77161 0 7.54773 0.063543 7.35339 0.183521C7.15906 0.303499 7.00194 0.475179 6.8996 0.679358L0.129815 14.2189C0.0360662 14.4065 -0.00818978 14.615 0.00124672 14.8245C0.0106832 15.034 0.0734992 15.2377 0.183734 15.4161C0.293969 15.5945 0.447967 15.7418 0.631114 15.844C0.814262 15.9462 1.02048 15.9999 1.23021 16H14.7698C14.9795 15.9999 15.1857 15.9462 15.3689 15.844C15.552 15.7418 15.706 15.5945 15.8163 15.4161C15.9265 15.2377 15.9893 15.034 15.9988 14.8245C16.0082 14.615 15.9639 14.4065 15.8702 14.2189L9.1004 0.679358ZM6.5 13C6.5 13.3978 6.65804 13.7794 6.93934 14.0607C7.22064 14.342 7.60218 14.5 8 14.5C8.39782 14.5 8.77936 14.342 9.06066 14.0607C9.34196 13.7794 9.5 13.3978 9.5 13C9.5 12.6022 9.34196 12.2206 9.06066 11.9393C8.77936 11.658 8.39782 11.5 8 11.5C7.60218 11.5 7.22064 11.658 6.93934 11.9393C6.65804 12.2206 6.5 12.6022 6.5 13ZM8 5C7.44772 5 7 5.44772 7 6V9C7 9.55229 7.44772 10 8 10C8.55229 10 9 9.55229 9 9V6C9 5.44772 8.55229 5 8 5Z" fill="#D9480F"/>
</g>
<defs>
<clipPath id="clip0_8224_19484">
<rect width="16" height="16" fill="white"/>
</clipPath>
</defs>
</svg>
