<svg xmlns="http://www.w3.org/2000/svg" xmlns:xlink="http://www.w3.org/1999/xlink" version="1.1" width="1890px" height="399px" style="shape-rendering:geometricPrecision; text-rendering:geometricPrecision; image-rendering:optimizeQuality; fill-rule:evenodd; clip-rule:evenodd">
<g><path style="opacity:0.967" fill="#ed0032" d="M 1679.5,48.5 C 1693.36,46.5503 1701.36,52.3836 1703.5,66C 1703.28,72.3319 1700.62,77.3319 1695.5,81C 1682.75,85.994 1678.92,94.8273 1684,107.5C 1687.72,111.273 1691.88,114.44 1696.5,117C 1700.39,121.806 1704.73,126.14 1709.5,130C 1722.3,136.171 1733.47,134.004 1743,123.5C 1745.73,117.707 1748.73,112.04 1752,106.5C 1765.67,94.5 1779.33,94.5 1793,106.5C 1801.67,118.5 1801.67,130.5 1793,142.5C 1782.24,152.407 1770.41,153.907 1757.5,147C 1743.49,134.179 1729.66,134.345 1716,147.5C 1714.29,149.956 1712.96,152.623 1712,155.5C 1711.55,160.026 1710.38,164.359 1708.5,168.5C 1711.57,177.688 1717.57,180.021 1726.5,175.5C 1735.2,176.896 1738.37,181.896 1736,190.5C 1732.25,196.542 1727.09,198.042 1720.5,195C 1717.32,191.489 1715.49,187.322 1715,182.5C 1711.46,178.422 1707.29,177.255 1702.5,179C 1689.72,193.096 1674.05,197.762 1655.5,193C 1628.64,181.447 1619.48,161.614 1628,133.5C 1636.31,116.88 1649.81,107.714 1668.5,106C 1681.19,96.5474 1681.69,86.3807 1670,75.5C 1665.07,63.4958 1668.24,54.4958 1679.5,48.5 Z"/></g>
<g><path style="opacity:0.987" fill="#ed0032" d="M 1489.5,51.5 C 1540.18,53.7158 1575.35,78.0492 1595,124.5C 1598.15,133.926 1600.15,143.592 1601,153.5C 1601.67,216.833 1601.67,280.167 1601,343.5C 1600.21,346.583 1598.38,348.749 1595.5,350C 1576.83,350.667 1558.17,350.667 1539.5,350C 1537.71,349.215 1536.21,348.049 1535,346.5C 1533.68,313.919 1533.01,281.252 1533,248.5C 1530.55,229.714 1520.38,217.214 1502.5,211C 1477.02,206.51 1459.85,216.343 1451,240.5C 1450.02,275.879 1449.02,311.213 1448,346.5C 1446.79,348.049 1445.29,349.215 1443.5,350C 1424.5,350.667 1405.5,350.667 1386.5,350C 1384.33,349.167 1382.83,347.667 1382,345.5C 1381.33,280.833 1381.33,216.167 1382,151.5C 1388.07,109.787 1409.9,79.6206 1447.5,61C 1461.07,55.271 1475.07,52.1044 1489.5,51.5 Z M 1484.5,104.5 C 1513.11,104.774 1529.11,119.108 1532.5,147.5C 1528.17,177.008 1511.17,190.841 1481.5,189C 1460.25,183.251 1448.58,169.418 1446.5,147.5C 1448.68,123.665 1461.35,109.332 1484.5,104.5 Z"/></g>
<g><path style="opacity:0.961" fill="#ed0032" d="M 358.5,117.5 C 368.839,117.334 379.172,117.5 389.5,118C 395,119.5 398.5,123 400,128.5C 401.037,134.394 400.371,140.061 398,145.5C 396.062,148.106 393.562,149.939 390.5,151C 384.167,151.333 377.833,151.667 371.5,152C 360.613,153.014 353.113,158.514 349,168.5C 348.333,154.833 348.333,141.167 349,127.5C 351.022,122.98 354.189,119.647 358.5,117.5 Z"/></g>
<g><path style="opacity:0.978" fill="#ed0032" d="M 695.5,125.5 C 705.506,125.334 715.506,125.5 725.5,126C 731.41,127.579 734.91,131.412 736,137.5C 736.5,147.494 736.666,157.494 736.5,167.5C 771.5,167.5 806.5,167.5 841.5,167.5C 841.334,157.494 841.5,147.494 842,137.5C 843.402,131.764 846.902,127.931 852.5,126C 862.833,125.333 873.167,125.333 883.5,126C 886.902,127.4 889.736,129.567 892,132.5C 893.436,144.09 893.936,155.757 893.5,167.5C 915.167,167.5 936.833,167.5 958.5,167.5C 958.666,174.508 958.5,181.508 958,188.5C 956.813,192.709 954.313,195.876 950.5,198C 931.568,199.462 912.568,199.962 893.5,199.5C 893.333,227.169 893.5,254.835 894,282.5C 894.255,299.858 902.755,310.692 919.5,315C 932.728,317.244 946.061,318.077 959.5,317.5C 959.666,324.841 959.5,332.174 959,339.5C 957.073,344.428 953.573,347.594 948.5,349C 928.375,350.249 908.375,349.249 888.5,346C 872.044,342.369 858.877,333.869 849,320.5C 846.211,315.466 844.211,310.132 843,304.5C 841.563,269.526 841.063,234.526 841.5,199.5C 806.5,199.5 771.5,199.5 736.5,199.5C 736.333,229.169 736.5,258.835 737,288.5C 739.603,302.438 747.77,311.271 761.5,315C 775.067,317.221 788.734,318.054 802.5,317.5C 802.896,325.253 802.396,332.92 801,340.5C 798.685,344.817 795.185,347.65 790.5,349C 772.1,350.007 753.766,349.341 735.5,347C 717.651,344 703.151,335.5 692,321.5C 688.274,315.323 685.941,308.656 685,301.5C 684.5,267.502 684.333,233.502 684.5,199.5C 658.167,204.5 647.5,193.833 652.5,167.5C 663.167,167.5 673.833,167.5 684.5,167.5C 684.333,156.828 684.5,146.161 685,135.5C 687.106,130.557 690.606,127.224 695.5,125.5 Z"/></g>
<g><path style="opacity:0.98" fill="#ed0032" d="M 1216.5,125.5 C 1226.51,125.334 1236.51,125.5 1246.5,126C 1251.57,127.406 1255.07,130.572 1257,135.5C 1257.33,185.5 1257.67,235.5 1258,285.5C 1258.76,299.857 1265.93,309.357 1279.5,314C 1293.98,317.15 1308.65,318.317 1323.5,317.5C 1328.76,343.072 1318.59,353.739 1293,349.5C 1270.63,351.07 1249.47,346.904 1229.5,337C 1215.43,328.029 1207.59,315.196 1206,298.5C 1205.33,244.5 1205.33,190.5 1206,136.5C 1207.68,130.984 1211.18,127.318 1216.5,125.5 Z"/></g>
<g><path style="opacity:0.974" fill="#ed0032" d="M 93.5,167.5 C 107.551,167.091 121.551,167.591 135.5,169C 143.068,171.038 149.234,175.205 154,181.5C 174.256,222.346 194.256,263.346 214,304.5C 216.135,309.325 218.801,309.659 222,305.5C 242.077,263.68 262.41,222.013 283,180.5C 294.469,169.152 308.303,164.819 324.5,167.5C 330.5,167.833 336.5,168.167 342.5,168.5C 312.333,225.5 282.167,282.5 252,339.5C 242.952,349.064 231.786,353.064 218.5,351.5C 207.603,352.357 197.603,349.857 188.5,344C 186.548,341.926 184.715,339.759 183,337.5C 152.886,280.938 123.053,224.271 93.5,167.5 Z"/></g>
<g><path style="opacity:0.98" fill="#ed0032" d="M 361.5,167.5 C 371.566,167.105 381.566,167.605 391.5,169C 395.817,171.315 398.65,174.815 400,179.5C 400.667,232.5 400.667,285.5 400,338.5C 398.395,344.438 394.562,347.938 388.5,349C 378.833,349.667 369.167,349.667 359.5,349C 354,347.5 350.5,344 349,338.5C 348.333,285.167 348.333,231.833 349,178.5C 351.263,172.626 355.43,168.959 361.5,167.5 Z"/></g>
<g><path style="opacity:0.975" fill="#ed0032" d="M 513.5,167.5 C 532.836,167.333 552.17,167.5 571.5,168C 590.648,168.361 608.648,173.028 625.5,182C 642.495,193.146 651.328,208.979 652,229.5C 653.353,239.556 652.02,249.223 648,258.5C 642.245,266.465 634.412,270.965 624.5,272C 577.168,272.5 529.835,272.667 482.5,272.5C 482.038,281.391 483.204,290.058 486,298.5C 489.23,306.063 494.73,311.229 502.5,314C 507.1,315.317 511.766,316.317 516.5,317C 559.165,317.5 601.832,317.667 644.5,317.5C 644.666,324.841 644.5,332.174 644,339.5C 642.073,344.428 638.573,347.594 633.5,349C 585.146,349.95 536.812,349.617 488.5,348C 451.655,342.156 431.822,320.656 429,283.5C 428.333,267.5 428.333,251.5 429,235.5C 431.238,201.923 448.738,181.09 481.5,173C 492.198,170.503 502.864,168.669 513.5,167.5 Z M 528.5,198.5 C 540.55,198.312 552.55,198.979 564.5,200.5C 579.467,202.044 590.3,209.377 597,222.5C 598.844,227.211 598.844,231.877 597,236.5C 595.786,238.049 594.286,239.215 592.5,240C 562.47,240.056 532.47,240.723 502.5,242C 494.469,243.425 487.969,247.258 483,253.5C 481.885,242.361 482.552,231.361 485,220.5C 489.674,212.161 496.507,206.328 505.5,203C 513.178,200.835 520.845,199.335 528.5,198.5 Z"/></g>
<g><path style="opacity:0.975" fill="#ed0032" d="M 1048.5,167.5 C 1072.19,167.123 1095.86,167.623 1119.5,169C 1141.02,170.607 1159.52,178.774 1175,193.5C 1184.43,206.546 1188.93,221.212 1188.5,237.5C 1188.78,257.038 1179.44,268.538 1160.5,272C 1112.83,272.5 1065.17,272.667 1017.5,272.5C 1017.64,282.5 1019.47,292.166 1023,301.5C 1030.32,311.246 1040.15,316.412 1052.5,317C 1095.17,317.5 1137.83,317.667 1180.5,317.5C 1180.67,324.841 1180.5,332.174 1180,339.5C 1178.07,344.428 1174.57,347.594 1169.5,349C 1121.48,349.95 1073.48,349.617 1025.5,348C 988.37,343.537 968.203,322.704 965,285.5C 964.333,268.167 964.333,250.833 965,233.5C 967.569,202.596 983.736,182.763 1013.5,174C 1025.15,170.95 1036.81,168.784 1048.5,167.5 Z M 1064.5,198.5 C 1078.98,198.067 1093.31,199.234 1107.5,202C 1122.56,205.889 1131.56,215.389 1134.5,230.5C 1134.61,235.037 1132.61,238.203 1128.5,240C 1100.5,240.333 1072.5,240.667 1044.5,241C 1038.24,241.733 1032.24,243.399 1026.5,246C 1023,248.167 1020.17,251 1018,254.5C 1017.43,245.142 1017.77,235.809 1019,226.5C 1023.82,212.352 1033.66,203.852 1048.5,201C 1053.97,200.133 1059.31,199.3 1064.5,198.5 Z"/></g>
<g><path style="opacity:0.981" fill="#ed0032" d="M 1663.5,207.5 C 1688.14,206.223 1704.3,217.223 1712,240.5C 1713.62,274.47 1713.95,308.47 1713,342.5C 1712.5,346.02 1710.66,348.52 1707.5,350C 1682.17,350.667 1656.83,350.667 1631.5,350C 1628.62,348.749 1626.79,346.583 1626,343.5C 1625.04,309.133 1625.37,274.8 1627,240.5C 1632.43,221.9 1644.59,210.9 1663.5,207.5 Z"/></g>
</svg>
